<?xml version="1.0" encoding="UTF-8"?>
<svg version="1.1" viewBox="0 0 350.42 279.41" xmlns="http://www.w3.org/2000/svg"><g transform="translate(-35.532 -576.86)"><rect x="35.532" y="576.86" width="350.42" height="279.41" fill-opacity="0" style="paint-order:normal"/><path d="m206.57 600.54-4.9805 11.902-1.4023 8.5625 0.25781 3.2129-12.85 1.6914-0.58203-3.1699-3.5703-7.9082-7.8926-10.207-8.0566 2.1582-1.7305 12.787 0.86133 8.6348 1.0801 3.0352-11.973 4.959-1.3828-2.9102-5.4961-6.7148-10.264-7.8184-7.2266 4.1719 1.6387 12.799 3.0664 8.1172 1.8301 2.6504-10.281 7.8906-2.0898-2.4531-7.0469-5.0644-11.938-4.8945-5.8984 5.9004 4.8945 11.938 5.0625 7.0469 2.4551 2.0879-7.8906 10.283-2.6524-1.8301-8.1172-3.0664-12.799-1.6387-4.1699 7.2246 7.8164 10.264 6.7148 5.498 2.9121 1.3809-4.9609 11.975-3.0352-1.082-8.6348-0.86132-12.785 1.7305-2.1602 8.0586 10.209 7.8906 7.9082 3.5723 3.168 0.58008-1.6914 12.852-3.2109-0.25977-8.5645 1.4024-11.902 4.9805v8.3438l11.902 4.9805 8.5645 1.4023 3.2109-0.25977 1.6914 12.852-3.168 0.58007-7.9082 3.5723-10.209 7.8906 2.1602 8.0586 12.785 1.7305 8.6348-0.86133 3.0352-1.082 4.9238 11.887h0.91602l1.7559-0.0469 1.7109-0.11523 1.6758-0.12891 1.7559-0.24219 1.6758-0.32422 1.8008-1.8008h0.85742l0.69141-0.0371 0.57812-0.043 0.53125-0.0371 0.48438-0.16993 0.48633-0.24218 0.57812-0.24414 0.61133-0.45118h1.0644l1.0606-0.0332 1.0996-0.0488 1.1406-0.043 1.1895-0.0371 1.2266-0.0449 1.1777-0.0801 1.2695-0.082 1.2715-0.0801 1.2617-0.082 1.2715-0.0801 1.3027-0.082 1.3066-0.0801 1.3066-0.043 1.3027-0.0371 1.3516-0.0449h3.918l1.3145 0.0449 1.2617 0.0371 1.2715 0.043 1.2578 0.125 1.2266 0.11718 0.99219 0.16797-0.65234-2.2617-0.36719-2.2422-0.20898-2.25-1.5957 0.61132-1.5117-0.64843-0.61132-1.2246-0.36133-1.2695-0.16992-1.2227v-1.2715l0.0449-1.2617 0.0449-1.2227v-1.2695l-0.16993-1.2266-3.5938-7.5547 0.61133-11.438-0.40429-2.4844-0.12696-2.459 0.12696-2.4492 0.24218-2.4492 0.41602-2.4512 0.44141-2.4121 0.41406-2.4512 0.40429-2.4844 0.043-2.043 0.16211-2.043 0.24414-1.9668 0.3711-2.0312 0.44922-2.0117 0.48633-2.0352 0.57812-2.0059 0.61133-1.9551 0.6914-2.0059 0.69532-2.0039 0.77343-1.998 0.74024-2 0.81055-2.0058 0.8164-1.918 0.77735-2 0.77343-1.998 8.5-6.332 2.0469-1.3066 2-1.1055 2.0781-1.0195 2.0449-0.89844 2.043-0.82031 2.0352-0.64844 2.043-0.57812 2.0918-0.48633 2.0352-0.4043 2.043-0.33203 2.0449-0.24219 2.0801-0.24414 1.998-0.16016 2.0918-0.13085 2.0801-0.0801 2.0801-0.0449 2.0059-0.0801 2.0801-0.0371 2.0801-0.043 2.0469-0.0371 2.043-0.082 2.0801-0.0801 2.0801-0.16211 2.043-0.125 2.0801-0.24219 2.0918-0.28906 1.998-0.32422 2.0801-0.41406 2.0918-0.53125 2.0801-0.56641 2.043-0.69726 2.0801-0.77149 0.93554-0.28906 0.61524-1.4316 0.57226-1.3867 0.53516-1.3887 0.5293-1.4316 0.53125-1.3848 0.52929-1.3496 0.57032-1.3887 0.57421-1.4316 0.56836-1.3887 0.65821-1.3848 0.64843-1.3496 0.69141-1.4336 0.78516-1.3887 0.85351-1.3867 0.85742-1.3848 1.0156-1.4316-0.64648-2.2422-0.44922-2.0898-0.24219-2.0449-0.082-2.0352 0.0371-1.9629 0.20507-1.9609 0.24415-1.9551 0.32421-2.0098 2.123-3.3027 0.57813-0.32813 1.8359 1.4688 2.4492 3.9648 4.7832 4.2051h2.4473l9.6816 1.5449 6.9004-9.0547 0.6543-0.33594 2.0801 1.2266 1.1816 3.6367 0.65625 3.5938v1.5117l0.24219 5.1875 1.5938 1.793 0.24414 0.57422-1.502 3.3066v1.8359l1.502 3.0273 0.45312 1.6738 0.41211 1.6328 0.32422 1.5938 0.32422 1.5566 0.16211 1.6309 0.16211 1.5938 0.0469 1.627-0.082 1.6758 1.5469 2.7402 0.5332 3.834 0.24414 3.8008v3.8828l-0.19922 3.8379-2.125 3.3125-0.24219 1.793-3.3984 4.8594 0.69531 2.002 0.28906 2.0078-0.0371 1.918-0.44922 1.918-0.66015 1.9609-0.85352 1.918-1.1074 2-1.1797 1.9648-2.4512 5.4688-2.9453 3.6367-3.9609 2.6914-1.4688 1.2324-0.6543 0.24219-0.24414 2.2422-0.36719 2.209-0.49023 2.25-0.61133 2.2422-0.6582 2.2051-0.72852 2.291-0.73828 2.2051-0.82031 2.2852-0.85352 2.209-0.77734 2.2871-0.81641 2.2422-0.77734 2.252-0.69141 2.2871-0.65625 2.2422-0.5332 2.2402-0.44336 2.291 0.73047 1.6719 0.61328 1.6738 0.53125 1.6426 0.49609 1.5938 0.40626 1.6758 0.40429 1.5449 0.33203 1.6328 0.36133 1.5566 0.28906 1.2266 1.5098 0.56641 2.6973 1.9199 1.4199-0.19727 1.8379-0.24219 1.8809-0.1621 1.918-0.082 1.8848-0.0801 1.918-0.0449h1.918l1.9629 0.0449 1.9551 0.0371 1.9609 0.0801 1.918 0.0449 1.9629 0.125 1.9668 0.11718 1.998 0.12891 1.9629 0.11523 1.9531 0.0898 2.0078 0.082 1.9551 0.0801 1.918 0.082 1.9629 0.0371 1.1426 0.0254v-12.074c-4.6341-0.2589-7.3965-3.2802-7.3965-7.8106v-12.939c0-2.8885 4.5215-2.9579 4.5215 0v9.5977c0 6.3834 1.8097 6.8427 2.8965 6.9473v-41.779c0-3.2119 5.6914-3.2259 5.6914 0v34.457c0.6311-0.1026 2.9238 0.0702 2.9238-7.5977v-13.877c0-2.8776 4.5137-2.8822 4.5137 0v17.723c0 5.5601-3.3175 7.7568-7.4316 7.9961v19.227l0.85742-0.0566 1.8809-0.11914 1.8809-0.17188 1.8379-0.27929 1.8379-0.25196 1.8359-0.40429 1.8379-1.2266h6.0449l15.932 6.0156-0.43554-0.20703 4.959-11.975 3.0352 1.082 8.6348 0.86133 12.787-1.7305 2.1582-8.0586-10.209-7.8906-7.9082-3.5723-3.168-0.58007 1.6914-12.852 3.2109 0.25977 8.5645-1.4023 11.902-4.9805v-8.3438l-11.902-4.9805-8.5645-1.4024-3.2109 0.25977-1.6914-12.852 3.168-0.58008 7.9082-3.5723 10.209-7.8906-2.1582-8.0586-12.787-1.7305-8.6348 0.86132-3.0352 1.082-4.959-11.975 2.9102-1.3809 6.7148-5.498 7.8184-10.264-4.1719-7.2246-12.799 1.6387-8.1172 3.0664-2.6524 1.8301-7.8906-10.283 2.4551-2.0879 5.0625-7.0469 4.8945-11.938-5.8984-5.9004-11.938 4.8945-7.0469 5.0644-2.0879 2.4531-10.283-7.8906 1.8301-2.6504 3.0664-8.1172 1.6387-12.799-7.2246-4.1719-10.266 7.8184-5.4961 6.7148-1.3809 2.9102-11.975-4.959 1.0801-3.0352 0.86133-8.6348-1.7285-12.787-8.0586-2.1582-7.8926 10.207-3.5703 7.9082-0.58203 3.1699-12.85-1.6914 0.25781-3.2129-1.4024-8.5625-4.9805-11.902zm-21.037 156.77-0.125 0.81836-0.16211 0.77735-0.24414 0.77148-0.33203 0.82226-0.35938 0.81641-0.41601 0.73047-0.48633 0.82031-0.49414 0.81641-0.5332 0.77734-0.56641 0.77344-0.57422 0.82031-0.61523 0.77344-0.56641 0.82031-0.61133 0.77344-0.57812 0.82031-0.61133 0.81055-19.965 18.668-0.6582 1.3516-0.61133 1.3418-0.53125 1.3047-0.45117 1.3164-0.36914 1.3066-0.16211 1.2578-0.0371 1.3516 0.11914 1.3516 0.63477 5.7402 23.697 0.47657v0.28125l0.16211 0.28711 0.25391 0.2871 0.24219 0.32227 0.28711 0.24414 0.32422 0.25391 0.24414 0.16211h0.28906l0.61328 0.0371 0.69141 0.082 0.74023 0.16797 0.85352 0.16211 0.90039 0.16211 0.89257 0.24218 0.94532 0.21094 0.93554 0.1582 0.93946 0.11719 0.86133 0.12891 0.89453 0.082h0.86132l0.73243-0.11914 0.6914-0.17188 0.61133-0.27929 0.49805-0.36914 0.6914-0.0449 0.69532-0.0351 0.65625-0.082 0.6914-0.125 0.69532-0.16211 0.69336-0.16211 0.6582-0.125 0.6914-0.20899 0.69336-0.16211 0.64844-0.11523 0.69531-0.16602 0.65625-0.16797 0.69532-0.11718 0.65429-0.082 0.69727-0.043 0.6914-0.0371h1.0156l1.0644 0.0371 1.1074 0.043 1.0645 0.0371 1.1406 0.082 1.1465 0.0801 1.1426 0.0879 1.1426 0.082 1.1328 0.084 1.1894 0.082 1.1894 0.0801 1.2266 0.11328 1.2246 0.082 1.1797 0.12891 1.2246 0.0801 1.1894 0.082 1.1777 0.043 1.2266 0.0371 1.1894 0.0449 1.1777 0.0371h2.3672l1.1445-0.0371 0.50195-0.0195 0.16406-2.0762-0.28711-1.2227-7.5547-21.73-1.2266-1.8008-2.4023-17.23-6.334-0.89844-3.3496 1.2227-1.8359 0.57031-8.1328-1.1816-3.0606 0.28711-12.34-6.0488z" fill="#fff"/></g><style type="text/css">.st0{opacity:0.8;}
	.st1{fill:#647635;}
	.st2{fill:url(#f);}
	.st3{opacity:0.8;fill:#647635;enable-background:new    ;}
	.st4{opacity:0.4;}
	.st5{fill:url(#e);}
	.st6{opacity:0.4;fill:#647635;enable-background:new    ;}
	.st7{fill:url(#d);}
	.st8{fill:url(#c);}
	.st9{fill:url(#b);}
	.st10{fill:url(#a);}</style></svg>
