<svg xmlns="http://www.w3.org/2000/svg" xmlns:xlink="http://www.w3.org/1999/xlink" viewBox="0 0 56.59 56.59"><defs><style>.cls-1{fill:none;}.cls-2{clip-path:url(#clip-path);}.cls-3{fill:#1c355e;}</style><clipPath id="clip-path" transform="translate(-0.84 -0.81)"><rect class="cls-1" width="58.23" height="58.13"/></clipPath></defs><title>NEW RECF Circle 534C OL</title><g id="Layer_2" data-name="Layer 2"><g id="Layer_1-2" data-name="Layer 1"><g class="cls-2"><path class="cls-3" d="M8.35,19l-1.29,0-.23.51L7.9,20l-.2.44L5.08,19.31l.4-.89c.27-.6.69-.84,1.21-.61a.75.75,0,0,1,.49.79l1.39-.05ZM6.64,19c.17-.37.15-.6-.14-.73s-.48,0-.65.37L5.66,19l.8.36Z" transform="translate(-0.84 -0.81)"/><path class="cls-3" d="M9.61,16.84c-.34.54-.89.7-1.66.23l-.31-.2c-.77-.48-.87-1.05-.53-1.59s.9-.71,1.67-.23l.31.2c.76.47.86,1,.52,1.59m-1.4-.18c.52.33.84.28,1,0s.1-.64-.43-1l-.31-.19c-.53-.33-.85-.28-1,0s-.1.64.42,1Z" transform="translate(-0.84 -0.81)"/><path class="cls-3" d="M9.21,12.46c.43-.52.84-.63,1.22-.31a.64.64,0,0,1,.21.72.65.65,0,0,1,.85,0c.33.28.45.74,0,1.31l-.65.78-2.2-1.83Zm.62,1.08.3-.36c.22-.27.2-.49,0-.64s-.34-.14-.64.21l-.26.31Zm1,.82.32-.38c.25-.3.24-.54,0-.72s-.46-.12-.73.21l-.28.34Z" transform="translate(-0.84 -0.81)"/><path class="cls-3" d="M13.62,12c-.47.43-1,.44-1.66-.22l-.25-.27c-.61-.67-.55-1.24-.08-1.68s1-.44,1.66.22l.25.27c.61.67.55,1.25.08,1.68m-1.31-.55c.42.46.74.5,1,.24s.27-.58-.14-1l-.25-.27c-.42-.46-.74-.5-1-.24s-.26.58.16,1Z" transform="translate(-0.84 -0.81)"/><polygon class="cls-3" points="14.32 6.33 14.57 6.67 13.89 7.15 15.3 9.15 14.91 9.43 13.5 7.42 12.83 7.89 12.58 7.55 14.32 6.33"/><polygon class="cls-3" points="17.3 7.93 16.87 8.17 15.47 5.66 15.89 5.42 17.3 7.93"/><path class="cls-3" d="M19.92,5.71a.54.54,0,0,0-.73-.24c-.35.15-.44.46-.2,1l.15.34c.24.56.53.71.89.57a.55.55,0,0,0,.33-.7l.42-.18a1,1,0,0,1-.59,1.26C19.6,8,19.05,7.86,18.7,7l-.15-.34c-.35-.83-.11-1.36.48-1.61a1,1,0,0,1,1.32.45Z" transform="translate(-0.84 -0.81)"/><path class="cls-3" d="M23,4.51a.66.66,0,0,0-.68-.13c-.28.07-.41.25-.35.48s.31.31.72.29c.59,0,.93.09,1.07.59s-.05.87-.71,1.06a1.25,1.25,0,0,1-1.16-.17l.29-.35a.77.77,0,0,0,.73.12c.38-.11.45-.31.4-.51s-.23-.32-.74-.29-.93-.14-1.06-.61.06-.84.7-1a1.07,1.07,0,0,1,1.07.19Z" transform="translate(-0.84 -0.81)"/><polygon class="cls-3" points="27.26 2.25 27.29 2.67 26.02 2.77 26.08 3.52 27.23 3.43 27.26 3.85 26.11 3.94 26.18 4.8 27.45 4.7 27.48 5.11 25.73 5.25 25.51 2.38 27.26 2.25"/><path class="cls-3" d="M29.41,5.91,29.55,3l1,0c.64,0,1.06.39,1,1.31l0,.35C31.47,5.67,31,6,30.38,6ZM31,4.72l0-.34c0-.59-.14-.85-.55-.87l-.49,0-.1,2,.49,0c.41,0,.6-.23.63-.82" transform="translate(-0.84 -0.81)"/><path class="cls-3" d="M35.2,3.74l-.33,1.67c-.16.83-.65,1.1-1.28,1s-1-.55-.82-1.38l.32-1.68.47.09L33.24,5.1c-.1.54,0,.8.43.87s.63-.11.73-.65l.32-1.68Z" transform="translate(-0.84 -0.81)"/><path class="cls-3" d="M37.94,5.51a.54.54,0,0,0-.38-.67c-.36-.12-.64,0-.84.63l-.11.35c-.2.58-.09.89.27,1a.54.54,0,0,0,.71-.3l.44.15a1,1,0,0,1-1.29.54c-.6-.2-.88-.71-.59-1.57l.12-.34c.29-.86.82-1.08,1.43-.88a1,1,0,0,1,.68,1.22Z" transform="translate(-0.84 -0.81)"/><path class="cls-3" d="M38.44,7.82,40.61,5.7l.41.21-.4,3-.45-.23.09-.62-.92-.46-.44.44Zm1.2-.53.68.35.18-1.21Z" transform="translate(-0.84 -0.81)"/><polygon class="cls-3" points="43.54 7.13 43.31 7.49 42.63 7.03 41.28 9.08 40.88 8.81 42.23 6.77 41.54 6.31 41.77 5.96 43.54 7.13"/><polygon class="cls-3" points="43.16 10.5 42.79 10.2 44.61 7.98 44.99 8.29 43.16 10.5"/><path class="cls-3" d="M45.63,12.86c-.45-.46-.48-1,.17-1.67l.26-.26c.64-.63,1.22-.59,1.67-.14s.48,1-.16,1.67l-.26.26c-.65.63-1.23.59-1.68.14m.51-1.33c-.45.44-.48.76-.21,1s.59.25,1-.18l.26-.26c.44-.44.47-.76.2-1s-.59-.25-1,.19Z" transform="translate(-0.84 -0.81)"/><polygon class="cls-3" points="49.81 13.57 47.51 15.29 47.26 14.95 48.12 12.84 46.56 14.01 46.28 13.63 48.58 11.92 48.83 12.25 47.95 14.38 49.53 13.2 49.81 13.57"/><path class="cls-3" d="M51.38,18.12a1.06,1.06,0,0,1,.47-.53.68.68,0,0,1,.91.41c.22.47.05.79-.21.91s-.62-.05-.95-.23l-.37.87a1.18,1.18,0,0,0,.46-.11l.19.4A1.46,1.46,0,0,1,51,20l-.28.65-.24-.52.11-.26a1.26,1.26,0,0,1-.55-.62.84.84,0,0,1,.33-1.2,1.07,1.07,0,0,1,1,.09m-.58,1.33.42-1a.68.68,0,0,0-.57-.05.43.43,0,0,0-.19.63.88.88,0,0,0,.34.39m1-1.11c.22.14.42.24.57.17s.17-.17.09-.35a.26.26,0,0,0-.37-.14.7.7,0,0,0-.29.32" transform="translate(-0.84 -0.81)"/><path class="cls-3" d="M5.75,35a.56.56,0,0,0,.37-.67c-.09-.38-.38-.52-1-.39L4.78,34c-.6.14-.8.4-.72.77s.26.45.62.45l.1.45a1,1,0,0,1-1.13-.81c-.14-.62.15-1.13,1-1.33L5,33.44c.89-.2,1.36.14,1.5.76a1,1,0,0,1-.68,1.22Z" transform="translate(-0.84 -0.81)"/><path class="cls-3" d="M4.72,38.39c-.23-.6,0-1.14.82-1.46l.34-.13c.85-.32,1.36-.06,1.59.54s0,1.14-.82,1.46l-.34.13c-.84.32-1.36,0-1.59-.54m1-1c-.58.22-.73.5-.6.85s.45.47,1,.25l.34-.13c.58-.22.74-.5.6-.86s-.44-.46-1-.24Z" transform="translate(-0.84 -0.81)"/><polygon class="cls-3" points="6.72 40.68 8.58 40.56 8.81 40.96 6.32 42.4 6.09 42 7.76 41.03 6.24 41.15 6.07 40.86 6.92 39.62 5.27 40.58 5.04 40.18 7.53 38.74 7.75 39.13 6.72 40.68"/><path class="cls-3" d="M9.38,44.47l-.81.67-.3-.38L10.5,43l.61.75A.92.92,0,1,1,9.7,44.86Zm.61.08c.28.35.52.38.78.17s.26-.45,0-.79l-.28-.34-.76.62Z" transform="translate(-0.84 -0.81)"/><polygon class="cls-3" points="12.99 45.75 12.71 46.05 11.78 45.18 11.26 45.73 12.09 46.52 11.81 46.82 10.97 46.03 10.38 46.65 11.3 47.53 11.02 47.83 9.74 46.63 11.72 44.54 12.99 45.75"/><polygon class="cls-3" points="15.55 47.69 15.3 48.03 14.63 47.55 13.2 49.54 12.81 49.26 14.24 47.27 13.57 46.79 13.81 46.45 15.55 47.69"/><rect class="cls-3" x="15.38" y="50.18" width="2.87" height="0.48" transform="translate(-36.11 38.99) rotate(-60.03)"/><polygon class="cls-3" points="19.82 49.89 19.65 50.27 18.9 49.94 17.91 52.19 17.47 51.99 18.46 49.74 17.7 49.41 17.87 49.02 19.82 49.89"/><polygon class="cls-3" points="20.42 53.11 19.96 52.97 20.85 50.23 21.3 50.38 20.42 53.11"/><path class="cls-3" d="M23.79,54.62c-.63-.13-1-.6-.79-1.48l.08-.36c.18-.89.68-1.18,1.31-1.05s1,.6.79,1.48l-.08.36c-.18.88-.68,1.17-1.31,1m-.32-1.39c-.12.61,0,.9.4,1s.64-.12.76-.73l.08-.36c.12-.6,0-.89-.41-1s-.63.13-.75.74Z" transform="translate(-0.84 -0.81)"/><polygon class="cls-3" points="27.94 51.47 27.78 54.33 27.35 54.31 26.3 52.29 26.18 54.24 25.72 54.21 25.89 51.34 26.3 51.37 27.36 53.41 27.48 51.44 27.94 51.47"/><polygon class="cls-3" points="32.52 51.07 32.58 51.49 31.31 51.67 31.43 52.48 32.57 52.32 32.63 52.73 31.49 52.89 31.66 54.09 31.19 54.16 30.78 51.32 32.52 51.07"/><path class="cls-3" d="M36.25,54.17c-.62.17-1.14-.08-1.39-1l-.09-.35c-.25-.87.06-1.36.67-1.54s1.15.08,1.39,1l.1.35c.25.87-.06,1.36-.68,1.54m-.92-1.08c.17.59.44.78.81.67s.5-.4.33-1l-.1-.35c-.17-.6-.44-.78-.81-.67s-.5.4-.33,1Z" transform="translate(-0.84 -0.81)"/><path class="cls-3" d="M39.65,49.75l.7,1.56a1,1,0,0,1-.48,1.54c-.58.26-1.12.11-1.47-.66l-.71-1.56.44-.2L38.84,52c.22.5.5.63.86.47s.44-.45.21-1L39.21,50Z" transform="translate(-0.84 -0.81)"/><polygon class="cls-3" points="41.78 47.12 43.35 49.53 42.99 49.77 40.95 48.77 42.01 50.4 41.62 50.66 40.05 48.25 40.4 48.02 42.47 49.04 41.39 47.38 41.78 47.12"/><path class="cls-3" d="M45.6,49.27l-1.89-2.16.73-.63c.48-.43,1-.45,1.64.24l.23.25c.6.69.5,1.24,0,1.66Zm.34-2L45.72,47c-.39-.44-.69-.51-1-.24l-.37.32,1.34,1.53.37-.32c.31-.27.27-.59-.12-1" transform="translate(-0.84 -0.81)"/><path class="cls-3" d="M48.11,47l-1.53-2.64.3-.34,2.82,1.12-.33.39-.58-.25-.67.79.32.54Zm-.22-1.3.5-.58-1.13-.47Z" transform="translate(-0.84 -0.81)"/><polygon class="cls-3" points="48.23 40.18 48.58 40.41 48.12 41.09 50.16 42.45 49.89 42.85 47.85 41.49 47.39 42.18 47.04 41.95 48.23 40.18"/><polygon class="cls-3" points="51.5 40.14 51.27 40.57 48.73 39.24 48.96 38.81 51.5 40.14"/><path class="cls-3" d="M53.46,38.56c-.23.6-.75.86-1.59.53L51.53,39c-.85-.33-1.05-.87-.82-1.47s.76-.86,1.6-.53l.34.14c.85.33,1.05.87.81,1.47M52,38.64c.58.23.89.12,1-.23s0-.65-.59-.87l-.34-.14c-.58-.22-.89-.12-1,.24s0,.64.59.86Z" transform="translate(-0.84 -0.81)"/><polygon class="cls-3" points="51.16 32.45 53.95 33.1 53.85 33.51 51.69 34.21 53.59 34.65 53.48 35.1 50.69 34.45 50.78 34.05 52.97 33.35 51.05 32.9 51.16 32.45"/><path class="cls-3" d="M29.14,51.14a22,22,0,1,1,22-22A22.06,22.06,0,0,1,29.14,51.14Zm0-43.31A21.28,21.28,0,1,0,50.42,29.11,21.3,21.3,0,0,0,29.14,7.83Z" transform="translate(-0.84 -0.81)"/><path class="cls-3" d="M29.14,57.4a28.3,28.3,0,1,1,28.3-28.29A28.33,28.33,0,0,1,29.14,57.4Zm0-55.59a27.3,27.3,0,1,0,27.3,27.3A27.34,27.34,0,0,0,29.14,1.81Z" transform="translate(-0.84 -0.81)"/><polygon class="cls-3" points="12.67 31.14 12.57 31.69 11.24 31.69 11.1 32.48 12.3 32.48 12.2 33.02 11 33.02 10.77 34.32 10.12 34.32 10.69 31.14 12.67 31.14"/><path class="cls-3" d="M14.56,35.17c-.72,0-1.14-.48-1-1.4l.08-.45c.17-1,.68-1.41,1.47-1.41s1.13.49,1,1.41l-.08.45c-.18,1-.67,1.4-1.47,1.4m-.33-1.4c-.11.61,0,.86.42.86s.62-.25.73-.86l.08-.45c.11-.61-.05-.86-.42-.86s-.61.25-.73.86Z" transform="translate(-0.84 -0.81)"/><path class="cls-3" d="M19.4,32l-.34,1.85c-.18,1-.74,1.37-1.47,1.37s-1.14-.39-1-1.34L17,32h.65l-.34,1.9c-.1.54,0,.78.43.78s.62-.24.72-.78l.34-1.9Z" transform="translate(-0.84 -0.81)"/><polygon class="cls-3" points="21.65 31.14 21.08 34.32 20.56 34.32 19.66 32.36 19.3 34.32 18.69 34.32 19.26 31.14 19.77 31.14 20.68 33.14 21.04 31.14 21.65 31.14"/><path class="cls-3" d="M22.67,35.13,23.24,32h1.12c.72,0,1.15.46,1,1.39l-.08.41c-.18,1-.66,1.38-1.46,1.38Zm1.95-1.38.08-.41c.1-.55,0-.84-.43-.84h-.49l-.37,2.09h.48c.43,0,.63-.29.73-.84" transform="translate(-0.84 -0.81)"/><path class="cls-3" d="M25.23,35.13,26.91,32h.61l.54,3.18H27.4l-.09-.6H26.25l-.3.6ZM26.52,34h.72l-.16-1.12Z" transform="translate(-0.84 -0.81)"/><polygon class="cls-3" points="30.01 31.14 29.92 31.69 29.04 31.69 28.57 34.32 27.93 34.32 28.39 31.69 27.52 31.69 27.62 31.14 30.01 31.14"/><polygon class="cls-3" points="30.4 34.32 29.75 34.32 30.32 31.14 30.96 31.14 30.4 34.32"/><path class="cls-3" d="M33.09,35.17c-.72,0-1.14-.48-1-1.4l.08-.45c.17-1,.68-1.41,1.47-1.41s1.13.49,1,1.41l-.08.45c-.18,1-.67,1.4-1.47,1.4m-.33-1.4c-.11.61.05.86.42.86s.62-.25.73-.86l.08-.45c.11-.61-.05-.86-.42-.86s-.61.25-.72.86Z" transform="translate(-0.84 -0.81)"/><polygon class="cls-3" points="37.06 31.14 36.49 34.32 35.97 34.32 35.06 32.36 34.71 34.32 34.1 34.32 34.66 31.14 35.18 31.14 36.09 33.14 36.44 31.14 37.06 31.14"/><path class="cls-3" d="M20.71,26.35c-.22,1.25-.55,1.89-2.2,1.89h0l1.73,2.33a.16.16,0,0,1-.13.25h-2a.42.42,0,0,1-.41-.19l-1.5-2.28H14.41L14,30.57a.27.27,0,0,1-.3.25H12c-.17,0-.25-.09-.23-.25l1.3-7.31a.28.28,0,0,1,.3-.24h6.07c1.1,0,1.59.38,1.59,1.25a3.4,3.4,0,0,1,0,.53Zm-5.66-1.54-.31,1.75h2.94c.64,0,.76-.1.86-.63l.07-.48a1.37,1.37,0,0,0,0-.3c0-.28-.16-.34-.66-.34Z" transform="translate(-0.84 -0.81)"/><path class="cls-3" d="M30.13,23c.17,0,.25.09.22.24l-.24,1.31a.26.26,0,0,1-.29.24H24.5L24.27,26h4.46c.16,0,.25.09.21.24l-.21,1.23a.28.28,0,0,1-.3.24H24L23.75,29h5.33c.16,0,.23.09.21.25l-.24,1.3a.26.26,0,0,1-.29.25H21.45c-.17,0-.25-.09-.23-.25l1.29-7.31a.3.3,0,0,1,.31-.24Z" transform="translate(-0.84 -0.81)"/><path class="cls-3" d="M31.14,24.8c.21-1.25.56-1.78,2.19-1.78H37.7c1.13,0,1.59.29,1.59,1.12a5.75,5.75,0,0,1-.07.63l-.12.73a.29.29,0,0,1-.31.25H37.12c-.16,0-.23-.09-.21-.25l.06-.34a.41.41,0,0,0,0-.1c0-.17-.1-.25-.31-.25H34.25c-.72,0-.88.11-1,.71l-.49,2.79a1.89,1.89,0,0,0,0,.3c0,.34.18.41.76.41h2.42c.26,0,.39-.11.42-.34l.07-.35a.27.27,0,0,1,.3-.24h1.67c.17,0,.24.09.21.24l-.13.74c-.23,1.31-.42,1.75-2.13,1.75H32c-1.1,0-1.62-.38-1.62-1.25A2.62,2.62,0,0,1,30.4,29Z" transform="translate(-0.84 -0.81)"/><path class="cls-3" d="M22.54,17a12.11,12.11,0,0,1,1.85-1.46l-.13-.15a.53.53,0,0,0-.41-.19H20.69a.56.56,0,0,1,.41.19Z" transform="translate(-0.84 -0.81)"/><path class="cls-3" d="M19.55,36.9l0-.07a.25.25,0,0,0,0,.07" transform="translate(-0.84 -0.81)"/><path class="cls-3" d="M31.11,11.6a.67.67,0,0,0-.39-.48.58.58,0,0,0-.19,0H27.36a.66.66,0,0,1,.59.52l.59,2.27a9,9,0,0,1,3.15-.06l-.06-.21Z" transform="translate(-0.84 -0.81)"/><path class="cls-3" d="M35,11.63a.74.74,0,0,1,.43.87L35,14.81a12.05,12.05,0,0,1,3,2.15l1.45-1.61-.14.15a12.71,12.71,0,0,0-1.19-.69l.42-2.31a.75.75,0,0,0-.44-.87l-1.6-.52a.4.4,0,0,0-.15,0H33.23a.45.45,0,0,1,.16,0Z" transform="translate(-0.84 -0.81)"/><path class="cls-3" d="M47.79,31.82l-1.87-.71a18.47,18.47,0,0,0,.13-2,17.13,17.13,0,0,0-.14-2.28l1.88-.72a.78.78,0,0,0,.41-.89l-.43-1.94a.65.65,0,0,0-.59-.55H44.93c-.18-.48-.35-1-.57-1.41a14.22,14.22,0,0,0-1-1.76l1.32-1.75a.89.89,0,0,0,0-1L43.5,15.38a.53.53,0,0,0-.43-.22H39.91a.55.55,0,0,1,.43.22l1.17,1.41a.89.89,0,0,1,0,1l-1.32,1.75A15.78,15.78,0,0,1,42,23.27l1.91-.51.13,0a.64.64,0,0,1,.59.55L45,25.23a.78.78,0,0,1-.41.89l-1.87.72a21.31,21.31,0,0,1,.14,2.28,18.47,18.47,0,0,1-.13,2l1.86.71a.77.77,0,0,1,.4.9l-.42,1.94a.64.64,0,0,1-.6.55l-.12,0L42,34.68a16.2,16.2,0,0,1-1.77,3.7l1.32,1.75a.85.85,0,0,1,0,1l-1.17,1.42a.57.57,0,0,1-.43.22h3.17a.55.55,0,0,0,.42-.22l1.17-1.42a.86.86,0,0,0,0-1l-1.32-1.75a16.65,16.65,0,0,0,1.55-3.17h2.25a.66.66,0,0,0,.6-.55l.42-1.94a.77.77,0,0,0-.4-.9" transform="translate(-0.84 -0.81)"/><path class="cls-3" d="M35,43.14l.42,2.3a.75.75,0,0,1-.43.87l-1.6.53-.16,0H36.4l.15,0,1.6-.53a.75.75,0,0,0,.44-.87l-.42-2.3a12,12,0,0,0,1.2-.69l.12.14L38.06,41A12.29,12.29,0,0,1,35,43.14" transform="translate(-0.84 -0.81)"/><path class="cls-3" d="M22.55,41l-1.45,1.6a.58.58,0,0,1-.42.2h3.17a.56.56,0,0,0,.41-.2l.14-.15A12.31,12.31,0,0,1,22.55,41" transform="translate(-0.84 -0.81)"/><path class="cls-3" d="M30.28,44.24h-.11a10.85,10.85,0,0,1-1.63-.16l-.6,2.26a.63.63,0,0,1-.58.52h3.16a.63.63,0,0,0,.59-.52l.55-2.1,0-.12a9.36,9.36,0,0,1-1.41.12" transform="translate(-0.84 -0.81)"/><path class="cls-3" d="M28.2,21.51a7.66,7.66,0,0,1,3.67-2.17,7.51,7.51,0,0,0-1.5-.19h-.08a7.25,7.25,0,0,0-5.24,2.36Z" transform="translate(-0.84 -0.81)"/><path class="cls-3" d="M25.18,36.58a7.28,7.28,0,0,0,5,2.21h.09a6.9,6.9,0,0,0,1.58-.19,7.58,7.58,0,0,1-3.53-2Z" transform="translate(-0.84 -0.81)"/></g></g></g></svg>