<svg xmlns="http://www.w3.org/2000/svg" viewBox="0 0 37.62 35.78"><defs><style>.cls-1{font-size:4.62px;font-family:DIN2014-BoldItalic, "DIN 2014";letter-spacing:0.02em;}.cls-1,.cls-10,.cls-13{fill:#fff;}.cls-1,.cls-10{font-weight:700;font-style:italic;}.cls-2{letter-spacing:0.02em;}.cls-3{letter-spacing:0.02em;}.cls-4{letter-spacing:0em;}.cls-5{letter-spacing:-0.04em;}.cls-6{letter-spacing:-0.02em;}.cls-7{letter-spacing:0.01em;}.cls-8{letter-spacing:0.02em;}.cls-9{letter-spacing:0em;}.cls-10{font-size:11.13px;font-family:GeomGraphic-BoldItalic, Geom Graphic;letter-spacing:0em;}.cls-11{letter-spacing:0em;}.cls-12{letter-spacing:0em;}</style></defs><title>NEW RECF White</title><g id="Layer_2" data-name="Layer 2"><g id="Layer_1-2" data-name="Layer 1"><text class="cls-1" transform="matrix(1, 0, 0.02, 1, 0.06, 24.05)">FO<tspan class="cls-2" x="5.42" y="0">U</tspan><tspan class="cls-3" x="8.57" y="0">N</tspan><tspan class="cls-4" x="11.7" y="0">D</tspan><tspan class="cls-5" x="14.6" y="0">A</tspan><tspan class="cls-6" x="17.21" y="0">T</tspan><tspan class="cls-7" x="19.59" y="0">I</tspan><tspan class="cls-8" x="21.01" y="0">O</tspan><tspan class="cls-9" x="23.98" y="0">N</tspan></text><text class="cls-10" transform="translate(0.95 19.73)">R<tspan class="cls-11" x="9.45" y="0">E</tspan><tspan class="cls-12" x="18.47" y="0">C</tspan></text><path class="cls-13" d="M12,5.87A12.68,12.68,0,0,1,13.8,4.42h0l-.13-.15a.58.58,0,0,0-.41-.2H10.09a.62.62,0,0,1,.42.2Z"/><path class="cls-13" d="M9,25.82a.3.3,0,0,1,0-.08A.3.3,0,0,0,9,25.82Z"/><path class="cls-13" d="M20.52.52A.67.67,0,0,0,20.13,0a.43.43,0,0,0-.19,0H16.77a.65.65,0,0,1,.59.52L18,2.79a10.6,10.6,0,0,1,1.88-.17,8.68,8.68,0,0,1,1.26.11L21,2.52Z"/><path class="cls-13" d="M24.4.55a.75.75,0,0,1,.43.87l-.42,2.31a12.46,12.46,0,0,1,3.05,2.14l1.45-1.6-.14.15a11.85,11.85,0,0,0-1.19-.69L28,1.42a.74.74,0,0,0-.44-.87L26,0l-.15,0H22.64l.16,0Z"/><path class="cls-13" d="M37.2,20.74,35.33,20a18.64,18.64,0,0,0,.13-2,17,17,0,0,0-.14-2.28L37.2,15a.8.8,0,0,0,.41-.9l-.43-1.93a.65.65,0,0,0-.59-.55H34.34c-.18-.48-.35-1-.57-1.41a13.85,13.85,0,0,0-1-1.77L34.1,6.74a.87.87,0,0,0,0-1L32.91,4.3a.54.54,0,0,0-.43-.22H29.32a.55.55,0,0,1,.43.22l1.17,1.41a.89.89,0,0,1,0,1L29.62,8.48a16.17,16.17,0,0,1,1.76,3.7l1.9-.5.14,0a.64.64,0,0,1,.59.55l.43,1.93A.79.79,0,0,1,34,15l-1.87.72A18.88,18.88,0,0,1,32.29,18a18.65,18.65,0,0,1-.12,2l1.86.71a.77.77,0,0,1,.4.9L34,23.58a.65.65,0,0,1-.6.54h-.13l-1.9-.52a15.81,15.81,0,0,1-1.77,3.7l1.32,1.76a.85.85,0,0,1,0,1l-1.17,1.42a.57.57,0,0,1-.43.21h3.16a.54.54,0,0,0,.43-.21l1.17-1.42a.86.86,0,0,0,0-1l-1.32-1.76a16.09,16.09,0,0,0,1.55-3.17h2.25a.66.66,0,0,0,.6-.54l.42-1.94A.78.78,0,0,0,37.2,20.74Z"/><path class="cls-13" d="M24.41,32.05l.42,2.31a.75.75,0,0,1-.43.87l-1.6.52-.16,0h3.17a.4.4,0,0,0,.15,0l1.6-.52a.76.76,0,0,0,.44-.87l-.42-2.31a9.43,9.43,0,0,0,1.19-.69l.13.15L27.47,29.9A12.21,12.21,0,0,1,24.41,32.05Z"/><path class="cls-13" d="M12,29.9l-1.44,1.61a.57.57,0,0,1-.42.19h3.17a.56.56,0,0,0,.41-.19l.14-.15A13,13,0,0,1,12,29.9Z"/><path class="cls-13" d="M19.69,33.16h-.11A10.85,10.85,0,0,1,18,33l-.6,2.26a.63.63,0,0,1-.58.52h3.16a.64.64,0,0,0,.59-.52l.55-2.1h0l0-.12A9.36,9.36,0,0,1,19.69,33.16Z"/><path class="cls-13" d="M17.61,10.42a7.72,7.72,0,0,1,3.67-2.16,7.51,7.51,0,0,0-1.5-.19H19.7a7.32,7.32,0,0,0-5.25,2.35Z"/><path class="cls-13" d="M14.59,25.5a7.26,7.26,0,0,0,5,2.21h.08a6.92,6.92,0,0,0,1.59-.19,7.62,7.62,0,0,1-3.54-2Z"/></g></g></svg>